<mxfile host="app.diagrams.net" modified="2024-02-04T09:44:50.491Z" agent="Mozilla/5.0 (Windows NT 10.0; Win64; x64) AppleWebKit/537.36 (KHTML, like Gecko) Chrome/121.0.0.0 Safari/537.36" etag="zmTubTf6tGEseuiajGiz" version="23.1.1" type="github">
  <diagram id="R2lEEEUBdFMjLlhIrx00" name="Page-1">
    <mxGraphModel dx="585" dy="320" grid="1" gridSize="10" guides="1" tooltips="1" connect="1" arrows="1" fold="1" page="1" pageScale="1" pageWidth="1100" pageHeight="850" math="0" shadow="0" extFonts="Permanent Marker^https://fonts.googleapis.com/css?family=Permanent+Marker">
      <root>
        <mxCell id="0" />
        <mxCell id="1" parent="0" />
        <mxCell id="-q0qYAUuw5lINkPiegIH-3" value="&lt;font style=&quot;font-size: 9px;&quot;&gt;Address&lt;/font&gt;" style="ellipse;whiteSpace=wrap;html=1;fillColor=#fff2cc;strokeColor=#d6b656;" vertex="1" parent="1">
          <mxGeometry x="70" y="120" width="60" height="40" as="geometry" />
        </mxCell>
        <mxCell id="-q0qYAUuw5lINkPiegIH-4" value="&lt;font size=&quot;1&quot;&gt;&lt;u style=&quot;font-size: 9px;&quot;&gt;HotelChainID&lt;/u&gt;&lt;/font&gt;" style="ellipse;whiteSpace=wrap;html=1;fillColor=#fff2cc;strokeColor=#d6b656;" vertex="1" parent="1">
          <mxGeometry x="50" y="170" width="70" height="40" as="geometry" />
        </mxCell>
        <mxCell id="-q0qYAUuw5lINkPiegIH-5" value="&lt;font style=&quot;font-size: 9px;&quot;&gt;NumberOfHotels&lt;/font&gt;" style="ellipse;whiteSpace=wrap;html=1;fillColor=#fff2cc;strokeColor=#d6b656;" vertex="1" parent="1">
          <mxGeometry x="120" y="80" width="80" height="40" as="geometry" />
        </mxCell>
        <mxCell id="-q0qYAUuw5lINkPiegIH-18" value="" style="endArrow=none;html=1;rounded=0;entryX=0.171;entryY=-0.01;entryDx=0;entryDy=0;entryPerimeter=0;exitX=1;exitY=0.5;exitDx=0;exitDy=0;" edge="1" parent="1" source="-q0qYAUuw5lINkPiegIH-4">
          <mxGeometry width="50" height="50" relative="1" as="geometry">
            <mxPoint x="120" y="270" as="sourcePoint" />
            <mxPoint x="188.81000000000006" y="189.59999999999997" as="targetPoint" />
          </mxGeometry>
        </mxCell>
        <mxCell id="-q0qYAUuw5lINkPiegIH-6" value="&lt;font style=&quot;font-size: 9px;&quot;&gt;EmailAddress&lt;/font&gt;" style="ellipse;whiteSpace=wrap;html=1;fillColor=#fff2cc;strokeColor=#d6b656;" vertex="1" parent="1">
          <mxGeometry x="210" y="90" width="70" height="40" as="geometry" />
        </mxCell>
        <mxCell id="-q0qYAUuw5lINkPiegIH-20" value="" style="endArrow=none;html=1;rounded=0;exitX=0.5;exitY=1;exitDx=0;exitDy=0;" edge="1" parent="1" source="-q0qYAUuw5lINkPiegIH-5">
          <mxGeometry width="50" height="50" relative="1" as="geometry">
            <mxPoint x="120" y="270" as="sourcePoint" />
            <mxPoint x="200" y="190" as="targetPoint" />
          </mxGeometry>
        </mxCell>
        <mxCell id="-q0qYAUuw5lINkPiegIH-7" value="&lt;font style=&quot;font-size: 9px;&quot;&gt;PhoneNumber&lt;/font&gt;" style="ellipse;whiteSpace=wrap;html=1;fillColor=#fff2cc;strokeColor=#d6b656;" vertex="1" parent="1">
          <mxGeometry x="270" y="120" width="70" height="40" as="geometry" />
        </mxCell>
        <mxCell id="-q0qYAUuw5lINkPiegIH-19" value="" style="endArrow=none;html=1;rounded=0;entryX=0.25;entryY=0;entryDx=0;entryDy=0;" edge="1" parent="1" source="-q0qYAUuw5lINkPiegIH-3">
          <mxGeometry width="50" height="50" relative="1" as="geometry">
            <mxPoint x="120" y="270" as="sourcePoint" />
            <mxPoint x="197.5" y="189.99999999999994" as="targetPoint" />
          </mxGeometry>
        </mxCell>
        <mxCell id="-q0qYAUuw5lINkPiegIH-22" value="" style="endArrow=none;html=1;rounded=0;entryX=0.09;entryY=0.802;entryDx=0;entryDy=0;entryPerimeter=0;exitX=0.325;exitY=-0.01;exitDx=0;exitDy=0;exitPerimeter=0;" edge="1" parent="1" target="-q0qYAUuw5lINkPiegIH-6">
          <mxGeometry width="50" height="50" relative="1" as="geometry">
            <mxPoint x="205.7500000000001" y="189.59999999999997" as="sourcePoint" />
            <mxPoint x="190" y="140" as="targetPoint" />
          </mxGeometry>
        </mxCell>
        <mxCell id="-q0qYAUuw5lINkPiegIH-23" value="" style="endArrow=none;html=1;rounded=0;entryX=0;entryY=0.5;entryDx=0;entryDy=0;exitX=0.378;exitY=-0.001;exitDx=0;exitDy=0;exitPerimeter=0;" edge="1" parent="1" target="-q0qYAUuw5lINkPiegIH-7">
          <mxGeometry width="50" height="50" relative="1" as="geometry">
            <mxPoint x="211.58000000000004" y="189.95999999999998" as="sourcePoint" />
            <mxPoint x="280" y="130" as="targetPoint" />
          </mxGeometry>
        </mxCell>
        <mxCell id="-q0qYAUuw5lINkPiegIH-27" value="" style="endArrow=none;html=1;rounded=0;entryX=0.082;entryY=0.472;entryDx=0;entryDy=0;shape=link;entryPerimeter=0;exitX=0.909;exitY=0.25;exitDx=0;exitDy=0;exitPerimeter=0;" edge="1" parent="1" target="-q0qYAUuw5lINkPiegIH-25">
          <mxGeometry width="50" height="50" relative="1" as="geometry">
            <mxPoint x="269.9900000000001" y="200" as="sourcePoint" />
            <mxPoint x="530" y="220" as="targetPoint" />
          </mxGeometry>
        </mxCell>
        <mxCell id="-q0qYAUuw5lINkPiegIH-24" value="HOTEL" style="rounded=0;whiteSpace=wrap;html=1;fillColor=#ffe6cc;strokeColor=#d79b00;" vertex="1" parent="1">
          <mxGeometry x="530" y="190" width="110" height="40" as="geometry" />
        </mxCell>
        <mxCell id="-q0qYAUuw5lINkPiegIH-26" value="&lt;font style=&quot;font-size: 11px;&quot;&gt;BELONGS_TO&lt;/font&gt;" style="rhombus;whiteSpace=wrap;html=1;fillColor=#b0e3e6;strokeColor=#0e8088;" vertex="1" parent="1">
          <mxGeometry x="365" y="230" width="90" height="60" as="geometry" />
        </mxCell>
        <mxCell id="-q0qYAUuw5lINkPiegIH-25" value="&lt;font style=&quot;font-size: 11px;&quot;&gt;OWNS&lt;/font&gt;" style="rhombus;whiteSpace=wrap;html=1;fillColor=#b0e3e6;strokeColor=#0e8088;" vertex="1" parent="1">
          <mxGeometry x="370" y="130" width="80" height="50" as="geometry" />
        </mxCell>
        <mxCell id="-q0qYAUuw5lINkPiegIH-28" value="HOTEL_CHAIN" style="rounded=0;whiteSpace=wrap;html=1;fillColor=#fad9d5;strokeColor=#ae4132;" vertex="1" parent="1">
          <mxGeometry x="170" y="190" width="110" height="40" as="geometry" />
        </mxCell>
      </root>
    </mxGraphModel>
  </diagram>
</mxfile>
